<svg width="117" height="113" viewBox="0 0 117 113" fill="none" xmlns="http://www.w3.org/2000/svg">
<g filter="url(#filter0_d_467_1626)">
<path d="M112.445 76.9296C114.288 106.274 106.286 108 77.7228 108H48.6528H28.0081C25.1388 108 22.8129 105.674 22.8129 102.805C22.8129 99.2576 22.8129 95.7437 22.8129 95.3169" stroke="white" stroke-width="7.94561"/>
</g>
<g filter="url(#filter1_d_467_1626)">
<path d="M63.3006 62.4225L70.3672 55.2911L87.2107 39.9627C88.1738 39.0862 89.1989 38.2803 90.2779 37.5513L91.5314 36.7043C93.4277 35.4232 95.5422 34.4807 97.7635 33.9302L99.9278 33.3938C104.277 32.3159 108.666 35.0069 109.678 39.3715L111.269 46.2337C111.999 49.3787 109.611 52.3838 106.382 52.3838H48.0265C44.7543 52.3838 41.523 53.1113 38.5665 54.5137L34.2799 56.5469C27.2768 59.8687 22.8129 66.9267 22.8129 74.6777V91.6657V96.9033M106.218 79.4447L112.178 78.6415C112.475 78.6015 112.696 78.3487 112.696 78.0498V74.6116C112.696 70.7978 111.254 67.1248 108.661 64.3288C107.132 62.6808 104.888 61.8942 102.665 62.227L102.293 62.2827C101.673 62.3755 101.069 62.5527 100.498 62.8094C97.938 63.9592 95.9384 66.0768 94.9371 68.6983L94.5885 69.6108C92.7762 74.3556 96.28 79.4447 101.359 79.4447H106.218Z" stroke="white" stroke-width="7.94561" shape-rendering="crispEdges"/>
</g>
<g filter="url(#filter2_d_467_1626)">
<path d="M34.2301 48.0506V12.0134C34.2301 9.79686 36.027 8 38.2435 8H78.1599" stroke="white" stroke-width="7.94561"/>
</g>
<g filter="url(#filter3_d_467_1626)">
<rect width="7.37157" height="7.11841" rx="3.5592" transform="matrix(0.772527 0.634982 -0.577999 0.816037 8.11438 68.1292)" fill="white"/>
<rect x="0.346182" y="2.58224" width="3.81237" height="3.5592" rx="1.7796" transform="matrix(0.772527 0.634982 -0.577999 0.816037 9.68566 68.3844)" stroke="white" stroke-width="3.5592"/>
</g>
<g filter="url(#filter4_d_467_1626)">
<rect width="7.37157" height="7.11841" rx="3.5592" transform="matrix(0.772527 0.634982 -0.577999 0.816037 8.11438 76.859)" fill="white"/>
<rect x="0.346182" y="2.58224" width="3.81237" height="3.5592" rx="1.7796" transform="matrix(0.772527 0.634982 -0.577999 0.816037 9.68566 77.1142)" stroke="white" stroke-width="3.5592"/>
</g>
<path d="M61.735 64.1391C63.3882 65.8146 65.1922 66.6957 67.1963 64.1391C67.2812 62.3479 65.4881 63.9215 63.8349 62.246C61.735 59.9871 64.8695 58 61.7349 58.7982C58.3478 60.174 60.0817 62.4635 61.735 64.1391Z" fill="white"/>
<defs>

</defs>
</svg>
