<svg width="374" height="129" viewBox="0 0 374 129" fill="none" xmlns="http://www.w3.org/2000/svg">
<rect x="83.0083" y="128.732" width="393" height="393" rx="10" transform="rotate(-134.205 83.0083 128.732)" fill="#D9D9D9"/>
<rect x="83.0083" y="128.732" width="393" height="393" rx="10" transform="rotate(-134.205 83.0083 128.732)" fill="url(#paint0_linear_290_1577)" fill-opacity="0.71"/>
<rect x="-51.8838" y="129" width="321.442" height="319.228" rx="10" transform="rotate(-134.205 -51.8838 129)" fill="white" fill-opacity="0.5"/>
<rect x="-51.8838" y="129" width="321.442" height="319.228" rx="10" transform="rotate(-134.205 -51.8838 129)" fill="url(#paint1_linear_290_1577)"/>
<rect x="145.116" y="111" width="321.442" height="319.228" rx="10" transform="rotate(-134.205 145.116 111)" fill="white" fill-opacity="0.5"/>
<rect x="145.116" y="111" width="321.442" height="319.228" rx="10" transform="rotate(-134.205 145.116 111)" fill="url(#paint2_linear_290_1577)"/>
<defs>
<linearGradient id="paint0_linear_290_1577" x1="476.008" y1="325.232" x2="83.0083" y2="325.232" gradientUnits="userSpaceOnUse">
<stop stop-color="#3823A1" stop-opacity="0"/>
<stop offset="1" stop-color="#3823A1"/>
</linearGradient>
<linearGradient id="paint1_linear_290_1577" x1="269.558" y1="288.614" x2="-51.8838" y2="288.614" gradientUnits="userSpaceOnUse">
<stop stop-color="#281B67" stop-opacity="0"/>
<stop offset="0.0769231" stop-color="#281B67" stop-opacity="0.0769231"/>
<stop offset="0.221154" stop-color="#281B67" stop-opacity="0.221154"/>
<stop offset="0.389423" stop-color="#281B67" stop-opacity="0.389423"/>
<stop offset="0.495192" stop-color="#281B67" stop-opacity="0.495192"/>
<stop offset="0.567308" stop-color="#281B67" stop-opacity="0.567308"/>
<stop offset="1" stop-color="#281B67"/>
</linearGradient>
<linearGradient id="paint2_linear_290_1577" x1="466.558" y1="270.614" x2="145.116" y2="270.614" gradientUnits="userSpaceOnUse">
<stop stop-color="#08022A" stop-opacity="0"/>
<stop offset="0.0769231" stop-color="#281B67" stop-opacity="0.0769231"/>
<stop offset="0.221154" stop-color="#281B67" stop-opacity="0.221154"/>
<stop offset="0.389423" stop-color="#281B67" stop-opacity="0.389423"/>
<stop offset="0.495192" stop-color="#281B67" stop-opacity="0.495192"/>
<stop offset="0.9999" stop-color="#281B67" stop-opacity="0.567308"/>
<stop offset="1" stop-color="#281B67"/>
</linearGradient>
</defs>
</svg>
